G04 #@! TF.GenerationSoftware,KiCad,Pcbnew,5.0.2+dfsg1-1*
G04 #@! TF.CreationDate,2020-08-26T18:16:29+10:00*
G04 #@! TF.ProjectId,board_k,626f6172-645f-46b2-9e6b-696361645f70,rev?*
G04 #@! TF.SameCoordinates,Original*
G04 #@! TF.FileFunction,Soldermask,Top*
G04 #@! TF.FilePolarity,Negative*
%FSLAX46Y46*%
G04 Gerber Fmt 4.6, Leading zero omitted, Abs format (unit mm)*
G04 Created by KiCad (PCBNEW 5.0.2+dfsg1-1) date Wed Aug 26 18:16:29 2020*
%MOMM*%
%LPD*%
G01*
G04 APERTURE LIST*
%ADD10C,0.100000*%
G04 APERTURE END LIST*
D10*
G36*
X158886626Y-99292037D02*
X158999852Y-99326384D01*
X159056466Y-99343557D01*
X159212989Y-99427221D01*
X159350186Y-99539814D01*
X159433448Y-99641271D01*
X159462778Y-99677009D01*
X159462779Y-99677011D01*
X159546443Y-99833533D01*
X159563616Y-99890147D01*
X159597963Y-100003373D01*
X159611000Y-100135742D01*
X159611000Y-100524257D01*
X159597963Y-100656626D01*
X159546443Y-100826466D01*
X159462778Y-100982991D01*
X159462777Y-100982992D01*
X159350186Y-101120186D01*
X159255251Y-101198096D01*
X159212991Y-101232778D01*
X159212989Y-101232779D01*
X159056467Y-101316443D01*
X159015734Y-101328799D01*
X158886627Y-101367963D01*
X158710000Y-101385359D01*
X158533374Y-101367963D01*
X158404267Y-101328799D01*
X158363534Y-101316443D01*
X158207012Y-101232779D01*
X158207010Y-101232778D01*
X158069816Y-101120186D01*
X158069812Y-101120183D01*
X157957222Y-100982992D01*
X157873557Y-100826467D01*
X157856384Y-100769853D01*
X157822037Y-100656627D01*
X157809000Y-100524258D01*
X157809000Y-100135743D01*
X157822037Y-100003374D01*
X157873557Y-99833535D01*
X157873557Y-99833534D01*
X157957221Y-99677011D01*
X158069814Y-99539814D01*
X158171271Y-99456552D01*
X158207009Y-99427222D01*
X158224913Y-99417652D01*
X158363533Y-99343557D01*
X158420147Y-99326384D01*
X158533373Y-99292037D01*
X158710000Y-99274641D01*
X158886626Y-99292037D01*
X158886626Y-99292037D01*
G37*
G36*
X156968600Y-99282989D02*
X157001649Y-99293014D01*
X157032106Y-99309294D01*
X157058799Y-99331201D01*
X157080706Y-99357894D01*
X157096986Y-99388351D01*
X157107011Y-99421400D01*
X157111000Y-99461904D01*
X157111000Y-101198096D01*
X157107011Y-101238600D01*
X157096986Y-101271649D01*
X157080706Y-101302106D01*
X157058799Y-101328799D01*
X157032106Y-101350706D01*
X157001649Y-101366986D01*
X156968600Y-101377011D01*
X156928096Y-101381000D01*
X155491904Y-101381000D01*
X155451400Y-101377011D01*
X155418351Y-101366986D01*
X155387894Y-101350706D01*
X155361201Y-101328799D01*
X155339294Y-101302106D01*
X155323014Y-101271649D01*
X155312989Y-101238600D01*
X155309000Y-101198096D01*
X155309000Y-99461904D01*
X155312989Y-99421400D01*
X155323014Y-99388351D01*
X155339294Y-99357894D01*
X155361201Y-99331201D01*
X155387894Y-99309294D01*
X155418351Y-99293014D01*
X155451400Y-99282989D01*
X155491904Y-99279000D01*
X156928096Y-99279000D01*
X156968600Y-99282989D01*
X156968600Y-99282989D01*
G37*
G36*
X146851821Y-97586313D02*
X146851824Y-97586314D01*
X146851825Y-97586314D01*
X147012239Y-97634975D01*
X147012241Y-97634976D01*
X147012244Y-97634977D01*
X147160078Y-97713995D01*
X147289659Y-97820341D01*
X147396005Y-97949922D01*
X147475023Y-98097756D01*
X147523687Y-98258179D01*
X147540117Y-98425000D01*
X147523687Y-98591821D01*
X147475023Y-98752244D01*
X147396005Y-98900078D01*
X147289659Y-99029659D01*
X147160078Y-99136005D01*
X147012244Y-99215023D01*
X147012241Y-99215024D01*
X147012239Y-99215025D01*
X146851825Y-99263686D01*
X146851824Y-99263686D01*
X146851821Y-99263687D01*
X146726804Y-99276000D01*
X146643196Y-99276000D01*
X146518179Y-99263687D01*
X146518176Y-99263686D01*
X146518175Y-99263686D01*
X146357761Y-99215025D01*
X146357759Y-99215024D01*
X146357756Y-99215023D01*
X146209922Y-99136005D01*
X146080341Y-99029659D01*
X145973995Y-98900078D01*
X145894977Y-98752244D01*
X145846313Y-98591821D01*
X145829883Y-98425000D01*
X145846313Y-98258179D01*
X145894977Y-98097756D01*
X145973995Y-97949922D01*
X146080341Y-97820341D01*
X146209922Y-97713995D01*
X146357756Y-97634977D01*
X146357759Y-97634976D01*
X146357761Y-97634975D01*
X146518175Y-97586314D01*
X146518176Y-97586314D01*
X146518179Y-97586313D01*
X146643196Y-97574000D01*
X146726804Y-97574000D01*
X146851821Y-97586313D01*
X146851821Y-97586313D01*
G37*
G36*
X144311821Y-97586313D02*
X144311824Y-97586314D01*
X144311825Y-97586314D01*
X144472239Y-97634975D01*
X144472241Y-97634976D01*
X144472244Y-97634977D01*
X144620078Y-97713995D01*
X144749659Y-97820341D01*
X144856005Y-97949922D01*
X144935023Y-98097756D01*
X144983687Y-98258179D01*
X145000117Y-98425000D01*
X144983687Y-98591821D01*
X144935023Y-98752244D01*
X144856005Y-98900078D01*
X144749659Y-99029659D01*
X144620078Y-99136005D01*
X144472244Y-99215023D01*
X144472241Y-99215024D01*
X144472239Y-99215025D01*
X144311825Y-99263686D01*
X144311824Y-99263686D01*
X144311821Y-99263687D01*
X144186804Y-99276000D01*
X144103196Y-99276000D01*
X143978179Y-99263687D01*
X143978176Y-99263686D01*
X143978175Y-99263686D01*
X143817761Y-99215025D01*
X143817759Y-99215024D01*
X143817756Y-99215023D01*
X143669922Y-99136005D01*
X143540341Y-99029659D01*
X143433995Y-98900078D01*
X143354977Y-98752244D01*
X143306313Y-98591821D01*
X143289883Y-98425000D01*
X143306313Y-98258179D01*
X143354977Y-98097756D01*
X143433995Y-97949922D01*
X143540341Y-97820341D01*
X143669922Y-97713995D01*
X143817756Y-97634977D01*
X143817759Y-97634976D01*
X143817761Y-97634975D01*
X143978175Y-97586314D01*
X143978176Y-97586314D01*
X143978179Y-97586313D01*
X144103196Y-97574000D01*
X144186804Y-97574000D01*
X144311821Y-97586313D01*
X144311821Y-97586313D01*
G37*
G36*
X141771821Y-97586313D02*
X141771824Y-97586314D01*
X141771825Y-97586314D01*
X141932239Y-97634975D01*
X141932241Y-97634976D01*
X141932244Y-97634977D01*
X142080078Y-97713995D01*
X142209659Y-97820341D01*
X142316005Y-97949922D01*
X142395023Y-98097756D01*
X142443687Y-98258179D01*
X142460117Y-98425000D01*
X142443687Y-98591821D01*
X142395023Y-98752244D01*
X142316005Y-98900078D01*
X142209659Y-99029659D01*
X142080078Y-99136005D01*
X141932244Y-99215023D01*
X141932241Y-99215024D01*
X141932239Y-99215025D01*
X141771825Y-99263686D01*
X141771824Y-99263686D01*
X141771821Y-99263687D01*
X141646804Y-99276000D01*
X141563196Y-99276000D01*
X141438179Y-99263687D01*
X141438176Y-99263686D01*
X141438175Y-99263686D01*
X141277761Y-99215025D01*
X141277759Y-99215024D01*
X141277756Y-99215023D01*
X141129922Y-99136005D01*
X141000341Y-99029659D01*
X140893995Y-98900078D01*
X140814977Y-98752244D01*
X140766313Y-98591821D01*
X140749883Y-98425000D01*
X140766313Y-98258179D01*
X140814977Y-98097756D01*
X140893995Y-97949922D01*
X141000341Y-97820341D01*
X141129922Y-97713995D01*
X141277756Y-97634977D01*
X141277759Y-97634976D01*
X141277761Y-97634975D01*
X141438175Y-97586314D01*
X141438176Y-97586314D01*
X141438179Y-97586313D01*
X141563196Y-97574000D01*
X141646804Y-97574000D01*
X141771821Y-97586313D01*
X141771821Y-97586313D01*
G37*
G36*
X139231821Y-97586313D02*
X139231824Y-97586314D01*
X139231825Y-97586314D01*
X139392239Y-97634975D01*
X139392241Y-97634976D01*
X139392244Y-97634977D01*
X139540078Y-97713995D01*
X139669659Y-97820341D01*
X139776005Y-97949922D01*
X139855023Y-98097756D01*
X139903687Y-98258179D01*
X139920117Y-98425000D01*
X139903687Y-98591821D01*
X139855023Y-98752244D01*
X139776005Y-98900078D01*
X139669659Y-99029659D01*
X139540078Y-99136005D01*
X139392244Y-99215023D01*
X139392241Y-99215024D01*
X139392239Y-99215025D01*
X139231825Y-99263686D01*
X139231824Y-99263686D01*
X139231821Y-99263687D01*
X139106804Y-99276000D01*
X139023196Y-99276000D01*
X138898179Y-99263687D01*
X138898176Y-99263686D01*
X138898175Y-99263686D01*
X138737761Y-99215025D01*
X138737759Y-99215024D01*
X138737756Y-99215023D01*
X138589922Y-99136005D01*
X138460341Y-99029659D01*
X138353995Y-98900078D01*
X138274977Y-98752244D01*
X138226313Y-98591821D01*
X138209883Y-98425000D01*
X138226313Y-98258179D01*
X138274977Y-98097756D01*
X138353995Y-97949922D01*
X138460341Y-97820341D01*
X138589922Y-97713995D01*
X138737756Y-97634977D01*
X138737759Y-97634976D01*
X138737761Y-97634975D01*
X138898175Y-97586314D01*
X138898176Y-97586314D01*
X138898179Y-97586313D01*
X139023196Y-97574000D01*
X139106804Y-97574000D01*
X139231821Y-97586313D01*
X139231821Y-97586313D01*
G37*
G36*
X152648600Y-93082989D02*
X152681649Y-93093014D01*
X152712106Y-93109294D01*
X152738799Y-93131201D01*
X152760706Y-93157894D01*
X152776986Y-93188351D01*
X152787011Y-93221400D01*
X152791000Y-93261904D01*
X152791000Y-94698096D01*
X152787011Y-94738600D01*
X152776986Y-94771649D01*
X152760706Y-94802106D01*
X152738799Y-94828799D01*
X152712106Y-94850706D01*
X152681649Y-94866986D01*
X152648600Y-94877011D01*
X152608096Y-94881000D01*
X150921904Y-94881000D01*
X150881400Y-94877011D01*
X150848351Y-94866986D01*
X150817894Y-94850706D01*
X150791201Y-94828799D01*
X150769294Y-94802106D01*
X150753014Y-94771649D01*
X150742989Y-94738600D01*
X150739000Y-94698096D01*
X150739000Y-93261904D01*
X150742989Y-93221400D01*
X150753014Y-93188351D01*
X150769294Y-93157894D01*
X150791201Y-93131201D01*
X150817894Y-93109294D01*
X150848351Y-93093014D01*
X150881400Y-93082989D01*
X150921904Y-93079000D01*
X152608096Y-93079000D01*
X152648600Y-93082989D01*
X152648600Y-93082989D01*
G37*
G36*
X152000442Y-90585518D02*
X152066627Y-90592037D01*
X152179853Y-90626384D01*
X152236467Y-90643557D01*
X152375087Y-90717652D01*
X152392991Y-90727222D01*
X152428729Y-90756552D01*
X152530186Y-90839814D01*
X152613448Y-90941271D01*
X152642778Y-90977009D01*
X152642779Y-90977011D01*
X152726443Y-91133533D01*
X152726443Y-91133534D01*
X152777963Y-91303373D01*
X152795359Y-91480000D01*
X152777963Y-91656627D01*
X152743616Y-91769853D01*
X152726443Y-91826467D01*
X152652348Y-91965087D01*
X152642778Y-91982991D01*
X152613448Y-92018729D01*
X152530186Y-92120186D01*
X152428729Y-92203448D01*
X152392991Y-92232778D01*
X152392989Y-92232779D01*
X152236467Y-92316443D01*
X152179853Y-92333616D01*
X152066627Y-92367963D01*
X152000443Y-92374481D01*
X151934260Y-92381000D01*
X151595740Y-92381000D01*
X151529558Y-92374482D01*
X151463373Y-92367963D01*
X151350147Y-92333616D01*
X151293533Y-92316443D01*
X151137011Y-92232779D01*
X151137009Y-92232778D01*
X151101271Y-92203448D01*
X150999814Y-92120186D01*
X150916552Y-92018729D01*
X150887222Y-91982991D01*
X150877652Y-91965087D01*
X150803557Y-91826467D01*
X150786384Y-91769853D01*
X150752037Y-91656627D01*
X150734641Y-91480000D01*
X150752037Y-91303373D01*
X150803557Y-91133534D01*
X150803557Y-91133533D01*
X150887221Y-90977011D01*
X150887222Y-90977009D01*
X150916552Y-90941271D01*
X150999814Y-90839814D01*
X151101271Y-90756552D01*
X151137009Y-90727222D01*
X151154913Y-90717652D01*
X151293533Y-90643557D01*
X151350147Y-90626384D01*
X151463373Y-90592037D01*
X151529558Y-90585518D01*
X151595740Y-90579000D01*
X151934260Y-90579000D01*
X152000442Y-90585518D01*
X152000442Y-90585518D01*
G37*
G36*
X141771821Y-89966313D02*
X141771824Y-89966314D01*
X141771825Y-89966314D01*
X141932239Y-90014975D01*
X141932241Y-90014976D01*
X141932244Y-90014977D01*
X142080078Y-90093995D01*
X142209659Y-90200341D01*
X142316005Y-90329922D01*
X142395023Y-90477756D01*
X142443687Y-90638179D01*
X142460117Y-90805000D01*
X142443687Y-90971821D01*
X142395023Y-91132244D01*
X142316005Y-91280078D01*
X142209659Y-91409659D01*
X142080078Y-91516005D01*
X141932244Y-91595023D01*
X141932241Y-91595024D01*
X141932239Y-91595025D01*
X141771825Y-91643686D01*
X141771824Y-91643686D01*
X141771821Y-91643687D01*
X141646804Y-91656000D01*
X141563196Y-91656000D01*
X141438179Y-91643687D01*
X141438176Y-91643686D01*
X141438175Y-91643686D01*
X141277761Y-91595025D01*
X141277759Y-91595024D01*
X141277756Y-91595023D01*
X141129922Y-91516005D01*
X141000341Y-91409659D01*
X140893995Y-91280078D01*
X140814977Y-91132244D01*
X140766313Y-90971821D01*
X140749883Y-90805000D01*
X140766313Y-90638179D01*
X140814977Y-90477756D01*
X140893995Y-90329922D01*
X141000341Y-90200341D01*
X141129922Y-90093995D01*
X141277756Y-90014977D01*
X141277759Y-90014976D01*
X141277761Y-90014975D01*
X141438175Y-89966314D01*
X141438176Y-89966314D01*
X141438179Y-89966313D01*
X141563196Y-89954000D01*
X141646804Y-89954000D01*
X141771821Y-89966313D01*
X141771821Y-89966313D01*
G37*
G36*
X139231821Y-89966313D02*
X139231824Y-89966314D01*
X139231825Y-89966314D01*
X139392239Y-90014975D01*
X139392241Y-90014976D01*
X139392244Y-90014977D01*
X139540078Y-90093995D01*
X139669659Y-90200341D01*
X139776005Y-90329922D01*
X139855023Y-90477756D01*
X139903687Y-90638179D01*
X139920117Y-90805000D01*
X139903687Y-90971821D01*
X139855023Y-91132244D01*
X139776005Y-91280078D01*
X139669659Y-91409659D01*
X139540078Y-91516005D01*
X139392244Y-91595023D01*
X139392241Y-91595024D01*
X139392239Y-91595025D01*
X139231825Y-91643686D01*
X139231824Y-91643686D01*
X139231821Y-91643687D01*
X139106804Y-91656000D01*
X139023196Y-91656000D01*
X138898179Y-91643687D01*
X138898176Y-91643686D01*
X138898175Y-91643686D01*
X138737761Y-91595025D01*
X138737759Y-91595024D01*
X138737756Y-91595023D01*
X138589922Y-91516005D01*
X138460341Y-91409659D01*
X138353995Y-91280078D01*
X138274977Y-91132244D01*
X138226313Y-90971821D01*
X138209883Y-90805000D01*
X138226313Y-90638179D01*
X138274977Y-90477756D01*
X138353995Y-90329922D01*
X138460341Y-90200341D01*
X138589922Y-90093995D01*
X138737756Y-90014977D01*
X138737759Y-90014976D01*
X138737761Y-90014975D01*
X138898175Y-89966314D01*
X138898176Y-89966314D01*
X138898179Y-89966313D01*
X139023196Y-89954000D01*
X139106804Y-89954000D01*
X139231821Y-89966313D01*
X139231821Y-89966313D01*
G37*
G36*
X147536000Y-91656000D02*
X145834000Y-91656000D01*
X145834000Y-89954000D01*
X147536000Y-89954000D01*
X147536000Y-91656000D01*
X147536000Y-91656000D01*
G37*
G36*
X144311821Y-89966313D02*
X144311824Y-89966314D01*
X144311825Y-89966314D01*
X144472239Y-90014975D01*
X144472241Y-90014976D01*
X144472244Y-90014977D01*
X144620078Y-90093995D01*
X144749659Y-90200341D01*
X144856005Y-90329922D01*
X144935023Y-90477756D01*
X144983687Y-90638179D01*
X145000117Y-90805000D01*
X144983687Y-90971821D01*
X144935023Y-91132244D01*
X144856005Y-91280078D01*
X144749659Y-91409659D01*
X144620078Y-91516005D01*
X144472244Y-91595023D01*
X144472241Y-91595024D01*
X144472239Y-91595025D01*
X144311825Y-91643686D01*
X144311824Y-91643686D01*
X144311821Y-91643687D01*
X144186804Y-91656000D01*
X144103196Y-91656000D01*
X143978179Y-91643687D01*
X143978176Y-91643686D01*
X143978175Y-91643686D01*
X143817761Y-91595025D01*
X143817759Y-91595024D01*
X143817756Y-91595023D01*
X143669922Y-91516005D01*
X143540341Y-91409659D01*
X143433995Y-91280078D01*
X143354977Y-91132244D01*
X143306313Y-90971821D01*
X143289883Y-90805000D01*
X143306313Y-90638179D01*
X143354977Y-90477756D01*
X143433995Y-90329922D01*
X143540341Y-90200341D01*
X143669922Y-90093995D01*
X143817756Y-90014977D01*
X143817759Y-90014976D01*
X143817761Y-90014975D01*
X143978175Y-89966314D01*
X143978176Y-89966314D01*
X143978179Y-89966313D01*
X144103196Y-89954000D01*
X144186804Y-89954000D01*
X144311821Y-89966313D01*
X144311821Y-89966313D01*
G37*
G36*
X152000443Y-88085519D02*
X152066627Y-88092037D01*
X152179853Y-88126384D01*
X152236467Y-88143557D01*
X152375087Y-88217652D01*
X152392991Y-88227222D01*
X152428729Y-88256552D01*
X152530186Y-88339814D01*
X152613448Y-88441271D01*
X152642778Y-88477009D01*
X152642779Y-88477011D01*
X152726443Y-88633533D01*
X152726443Y-88633534D01*
X152777963Y-88803373D01*
X152795359Y-88980000D01*
X152777963Y-89156627D01*
X152743616Y-89269853D01*
X152726443Y-89326467D01*
X152652348Y-89465087D01*
X152642778Y-89482991D01*
X152613448Y-89518729D01*
X152530186Y-89620186D01*
X152428729Y-89703448D01*
X152392991Y-89732778D01*
X152392989Y-89732779D01*
X152236467Y-89816443D01*
X152179853Y-89833616D01*
X152066627Y-89867963D01*
X152000443Y-89874481D01*
X151934260Y-89881000D01*
X151595740Y-89881000D01*
X151529557Y-89874481D01*
X151463373Y-89867963D01*
X151350147Y-89833616D01*
X151293533Y-89816443D01*
X151137011Y-89732779D01*
X151137009Y-89732778D01*
X151101271Y-89703448D01*
X150999814Y-89620186D01*
X150916552Y-89518729D01*
X150887222Y-89482991D01*
X150877652Y-89465087D01*
X150803557Y-89326467D01*
X150786384Y-89269853D01*
X150752037Y-89156627D01*
X150734641Y-88980000D01*
X150752037Y-88803373D01*
X150803557Y-88633534D01*
X150803557Y-88633533D01*
X150887221Y-88477011D01*
X150887222Y-88477009D01*
X150916552Y-88441271D01*
X150999814Y-88339814D01*
X151101271Y-88256552D01*
X151137009Y-88227222D01*
X151154913Y-88217652D01*
X151293533Y-88143557D01*
X151350147Y-88126384D01*
X151463373Y-88092037D01*
X151529557Y-88085519D01*
X151595740Y-88079000D01*
X151934260Y-88079000D01*
X152000443Y-88085519D01*
X152000443Y-88085519D01*
G37*
G36*
X152000442Y-85585518D02*
X152066627Y-85592037D01*
X152179853Y-85626384D01*
X152236467Y-85643557D01*
X152340164Y-85698985D01*
X152392991Y-85727222D01*
X152428729Y-85756552D01*
X152530186Y-85839814D01*
X152613448Y-85941271D01*
X152642778Y-85977009D01*
X152642779Y-85977011D01*
X152726443Y-86133533D01*
X152726443Y-86133534D01*
X152777963Y-86303373D01*
X152795359Y-86480000D01*
X152777963Y-86656627D01*
X152745665Y-86763100D01*
X152726443Y-86826467D01*
X152685812Y-86902481D01*
X152642778Y-86982991D01*
X152613448Y-87018729D01*
X152530186Y-87120186D01*
X152459376Y-87178297D01*
X152392991Y-87232778D01*
X152392989Y-87232779D01*
X152236467Y-87316443D01*
X152179853Y-87333616D01*
X152066627Y-87367963D01*
X152000442Y-87374482D01*
X151934260Y-87381000D01*
X151595740Y-87381000D01*
X151529558Y-87374482D01*
X151463373Y-87367963D01*
X151350147Y-87333616D01*
X151293533Y-87316443D01*
X151137011Y-87232779D01*
X151137009Y-87232778D01*
X151070624Y-87178297D01*
X150999814Y-87120186D01*
X150916552Y-87018729D01*
X150887222Y-86982991D01*
X150844188Y-86902481D01*
X150803557Y-86826467D01*
X150784335Y-86763100D01*
X150752037Y-86656627D01*
X150734641Y-86480000D01*
X150752037Y-86303373D01*
X150803557Y-86133534D01*
X150803557Y-86133533D01*
X150887221Y-85977011D01*
X150887222Y-85977009D01*
X150916552Y-85941271D01*
X150999814Y-85839814D01*
X151101271Y-85756552D01*
X151137009Y-85727222D01*
X151189836Y-85698985D01*
X151293533Y-85643557D01*
X151350147Y-85626384D01*
X151463373Y-85592037D01*
X151529558Y-85585518D01*
X151595740Y-85579000D01*
X151934260Y-85579000D01*
X152000442Y-85585518D01*
X152000442Y-85585518D01*
G37*
G36*
X147488228Y-85541703D02*
X147643100Y-85605853D01*
X147782481Y-85698985D01*
X147901015Y-85817519D01*
X147994147Y-85956900D01*
X148058297Y-86111772D01*
X148091000Y-86276184D01*
X148091000Y-86443816D01*
X148058297Y-86608228D01*
X147994147Y-86763100D01*
X147901015Y-86902481D01*
X147782481Y-87021015D01*
X147643100Y-87114147D01*
X147488228Y-87178297D01*
X147323816Y-87211000D01*
X147156184Y-87211000D01*
X146991772Y-87178297D01*
X146836900Y-87114147D01*
X146697519Y-87021015D01*
X146578985Y-86902481D01*
X146485853Y-86763100D01*
X146421703Y-86608228D01*
X146389000Y-86443816D01*
X146389000Y-86276184D01*
X146421703Y-86111772D01*
X146485853Y-85956900D01*
X146578985Y-85817519D01*
X146697519Y-85698985D01*
X146836900Y-85605853D01*
X146991772Y-85541703D01*
X147156184Y-85509000D01*
X147323816Y-85509000D01*
X147488228Y-85541703D01*
X147488228Y-85541703D01*
G37*
G36*
X142488228Y-85541703D02*
X142643100Y-85605853D01*
X142782481Y-85698985D01*
X142901015Y-85817519D01*
X142994147Y-85956900D01*
X143058297Y-86111772D01*
X143091000Y-86276184D01*
X143091000Y-86443816D01*
X143058297Y-86608228D01*
X142994147Y-86763100D01*
X142901015Y-86902481D01*
X142782481Y-87021015D01*
X142643100Y-87114147D01*
X142488228Y-87178297D01*
X142323816Y-87211000D01*
X142156184Y-87211000D01*
X141991772Y-87178297D01*
X141836900Y-87114147D01*
X141697519Y-87021015D01*
X141578985Y-86902481D01*
X141485853Y-86763100D01*
X141421703Y-86608228D01*
X141389000Y-86443816D01*
X141389000Y-86276184D01*
X141421703Y-86111772D01*
X141485853Y-85956900D01*
X141578985Y-85817519D01*
X141697519Y-85698985D01*
X141836900Y-85605853D01*
X141991772Y-85541703D01*
X142156184Y-85509000D01*
X142323816Y-85509000D01*
X142488228Y-85541703D01*
X142488228Y-85541703D01*
G37*
M02*
