M48
;DRILL file {KiCad 5.0.2+dfsg1-1} date Wed Aug 26 18:16:25 2020
;FORMAT={-:-/ absolute / inch / decimal}
FMAT,2
INCH,TZ
T1C0.0157
T2C0.0315
T3C0.0374
T4C0.0394
%
G90
G05
T1
X5.075Y-3.35
X5.075Y-3.425
X5.075Y-3.525
X5.125Y-3.55
X5.325Y-3.5
X5.325Y-3.65
X5.375Y-3.375
X5.375Y-3.875
X5.425Y-3.45
X5.525Y-3.825
X5.875Y-3.95
X5.95Y-4.
T2
X5.475Y-3.575
X5.475Y-3.875
X5.575Y-3.575
X5.575Y-3.875
X5.675Y-3.575
X5.675Y-3.875
X5.775Y-3.575
X5.775Y-3.875
X5.6Y-3.4
X5.7969Y-3.4
T3
X5.975Y-3.4047
X5.975Y-3.5031
X5.975Y-3.6016
X5.975Y-3.7
T4
X6.15Y-3.95
X6.2484Y-3.95
T0
M30
