G04 #@! TF.GenerationSoftware,KiCad,Pcbnew,5.0.2+dfsg1-1*
G04 #@! TF.CreationDate,2020-08-26T18:16:29+10:00*
G04 #@! TF.ProjectId,board_k,626f6172-645f-46b2-9e6b-696361645f70,rev?*
G04 #@! TF.SameCoordinates,Original*
G04 #@! TF.FileFunction,Legend,Top*
G04 #@! TF.FilePolarity,Positive*
%FSLAX46Y46*%
G04 Gerber Fmt 4.6, Leading zero omitted, Abs format (unit mm)*
G04 Created by KiCad (PCBNEW 5.0.2+dfsg1-1) date Wed Aug 26 18:16:29 2020*
%MOMM*%
%LPD*%
G01*
G04 APERTURE LIST*
%ADD10C,0.300000*%
%ADD11C,0.120000*%
%ADD12C,0.150000*%
G04 APERTURE END LIST*
D10*
X126460714Y-104183571D02*
X126460714Y-103397857D01*
X126389285Y-103255000D01*
X126246428Y-103183571D01*
X125960714Y-103183571D01*
X125817857Y-103255000D01*
X126460714Y-104112142D02*
X126317857Y-104183571D01*
X125960714Y-104183571D01*
X125817857Y-104112142D01*
X125746428Y-103969285D01*
X125746428Y-103826428D01*
X125817857Y-103683571D01*
X125960714Y-103612142D01*
X126317857Y-103612142D01*
X126460714Y-103540714D01*
X127032142Y-103183571D02*
X127817857Y-103183571D01*
X127032142Y-104183571D01*
X127817857Y-104183571D01*
X129460714Y-102826428D02*
X129532142Y-102755000D01*
X129675000Y-102683571D01*
X130032142Y-102683571D01*
X130175000Y-102755000D01*
X130246428Y-102826428D01*
X130317857Y-102969285D01*
X130317857Y-103112142D01*
X130246428Y-103326428D01*
X129389285Y-104183571D01*
X130317857Y-104183571D01*
X131246428Y-102683571D02*
X131389285Y-102683571D01*
X131532142Y-102755000D01*
X131603571Y-102826428D01*
X131675000Y-102969285D01*
X131746428Y-103255000D01*
X131746428Y-103612142D01*
X131675000Y-103897857D01*
X131603571Y-104040714D01*
X131532142Y-104112142D01*
X131389285Y-104183571D01*
X131246428Y-104183571D01*
X131103571Y-104112142D01*
X131032142Y-104040714D01*
X130960714Y-103897857D01*
X130889285Y-103612142D01*
X130889285Y-103255000D01*
X130960714Y-102969285D01*
X131032142Y-102826428D01*
X131103571Y-102755000D01*
X131246428Y-102683571D01*
X132317857Y-102826428D02*
X132389285Y-102755000D01*
X132532142Y-102683571D01*
X132889285Y-102683571D01*
X133032142Y-102755000D01*
X133103571Y-102826428D01*
X133175000Y-102969285D01*
X133175000Y-103112142D01*
X133103571Y-103326428D01*
X132246428Y-104183571D01*
X133175000Y-104183571D01*
X134103571Y-102683571D02*
X134246428Y-102683571D01*
X134389285Y-102755000D01*
X134460714Y-102826428D01*
X134532142Y-102969285D01*
X134603571Y-103255000D01*
X134603571Y-103612142D01*
X134532142Y-103897857D01*
X134460714Y-104040714D01*
X134389285Y-104112142D01*
X134246428Y-104183571D01*
X134103571Y-104183571D01*
X133960714Y-104112142D01*
X133889285Y-104040714D01*
X133817857Y-103897857D01*
X133746428Y-103612142D01*
X133746428Y-103255000D01*
X133817857Y-102969285D01*
X133889285Y-102826428D01*
X133960714Y-102755000D01*
X134103571Y-102683571D01*
D11*
G04 #@! TO.C,J3*
X161075000Y-90230000D02*
X161075000Y-96540000D01*
X161075000Y-96540000D02*
X149355000Y-96540000D01*
X149355000Y-96540000D02*
X149355000Y-95120000D01*
X149355000Y-95120000D02*
X153855000Y-95120000D01*
X153855000Y-95120000D02*
X153855000Y-90230000D01*
X161075000Y-90230000D02*
X161075000Y-83920000D01*
X161075000Y-83920000D02*
X149355000Y-83920000D01*
X149355000Y-83920000D02*
X149355000Y-85340000D01*
X149355000Y-85340000D02*
X153855000Y-85340000D01*
X153855000Y-85340000D02*
X153855000Y-90230000D01*
X154965000Y-94230000D02*
X160465000Y-94230000D01*
X160465000Y-94230000D02*
X160465000Y-93730000D01*
X160465000Y-93730000D02*
X154965000Y-93730000D01*
X154965000Y-93730000D02*
X154965000Y-94230000D01*
X154965000Y-91730000D02*
X160465000Y-91730000D01*
X160465000Y-91730000D02*
X160465000Y-91230000D01*
X160465000Y-91230000D02*
X154965000Y-91230000D01*
X154965000Y-91230000D02*
X154965000Y-91730000D01*
X154965000Y-89230000D02*
X160465000Y-89230000D01*
X160465000Y-89230000D02*
X160465000Y-88730000D01*
X160465000Y-88730000D02*
X154965000Y-88730000D01*
X154965000Y-88730000D02*
X154965000Y-89230000D01*
X154965000Y-86730000D02*
X160465000Y-86730000D01*
X160465000Y-86730000D02*
X160465000Y-86230000D01*
X160465000Y-86230000D02*
X154965000Y-86230000D01*
X154965000Y-86230000D02*
X154965000Y-86730000D01*
X150265000Y-93980000D02*
X149665000Y-94280000D01*
X149665000Y-94280000D02*
X149665000Y-93680000D01*
X149665000Y-93680000D02*
X150265000Y-93980000D01*
G04 #@! TO.C,J2*
X153650000Y-97870000D02*
X153650000Y-103840000D01*
X153650000Y-103840000D02*
X161270000Y-103840000D01*
X161270000Y-103840000D02*
X161270000Y-97870000D01*
X161270000Y-97870000D02*
X153650000Y-97870000D01*
X156960000Y-97880000D02*
X156960000Y-98630000D01*
X156960000Y-98630000D02*
X157960000Y-98630000D01*
X157960000Y-98630000D02*
X157960000Y-97880000D01*
X157960000Y-97880000D02*
X156960000Y-97880000D01*
X153660000Y-97880000D02*
X153660000Y-98630000D01*
X153660000Y-98630000D02*
X155460000Y-98630000D01*
X155460000Y-98630000D02*
X155460000Y-97880000D01*
X155460000Y-97880000D02*
X153660000Y-97880000D01*
X159460000Y-97880000D02*
X159460000Y-98630000D01*
X159460000Y-98630000D02*
X161260000Y-98630000D01*
X161260000Y-98630000D02*
X161260000Y-97880000D01*
X161260000Y-97880000D02*
X159460000Y-97880000D01*
X153660000Y-100130000D02*
X154410000Y-100130000D01*
X154410000Y-100130000D02*
X154410000Y-103080000D01*
X154410000Y-103080000D02*
X157460000Y-103080000D01*
X161260000Y-100130000D02*
X160510000Y-100130000D01*
X160510000Y-100130000D02*
X160510000Y-103080000D01*
X160510000Y-103080000D02*
X157460000Y-103080000D01*
X154610000Y-97580000D02*
X153360000Y-97580000D01*
X153360000Y-97580000D02*
X153360000Y-98830000D01*
G04 #@! TO.C,U1*
X148015000Y-95615000D02*
G75*
G02X148015000Y-93615000I0J1000000D01*
G01*
X148015000Y-93615000D02*
X148015000Y-91965000D01*
X148015000Y-91965000D02*
X137735000Y-91965000D01*
X137735000Y-91965000D02*
X137735000Y-97265000D01*
X137735000Y-97265000D02*
X148015000Y-97265000D01*
X148015000Y-97265000D02*
X148015000Y-95615000D01*
G04 #@! TO.C,C1*
X141120000Y-84490000D02*
X148360000Y-84490000D01*
X141120000Y-88230000D02*
X148360000Y-88230000D01*
X141120000Y-84490000D02*
X141120000Y-88230000D01*
X148360000Y-84490000D02*
X148360000Y-88230000D01*
G04 #@! TO.C,J3*
D12*
X147717380Y-90563333D02*
X148431666Y-90563333D01*
X148574523Y-90610952D01*
X148669761Y-90706190D01*
X148717380Y-90849047D01*
X148717380Y-90944285D01*
X147717380Y-90182380D02*
X147717380Y-89563333D01*
X148098333Y-89896666D01*
X148098333Y-89753809D01*
X148145952Y-89658571D01*
X148193571Y-89610952D01*
X148288809Y-89563333D01*
X148526904Y-89563333D01*
X148622142Y-89610952D01*
X148669761Y-89658571D01*
X148717380Y-89753809D01*
X148717380Y-90039523D01*
X148669761Y-90134761D01*
X148622142Y-90182380D01*
G04 #@! TO.C,J2*
X157126666Y-96232380D02*
X157126666Y-96946666D01*
X157079047Y-97089523D01*
X156983809Y-97184761D01*
X156840952Y-97232380D01*
X156745714Y-97232380D01*
X157555238Y-96327619D02*
X157602857Y-96280000D01*
X157698095Y-96232380D01*
X157936190Y-96232380D01*
X158031428Y-96280000D01*
X158079047Y-96327619D01*
X158126666Y-96422857D01*
X158126666Y-96518095D01*
X158079047Y-96660952D01*
X157507619Y-97232380D01*
X158126666Y-97232380D01*
G04 #@! TO.C,U1*
X148467380Y-95376904D02*
X149276904Y-95376904D01*
X149372142Y-95329285D01*
X149419761Y-95281666D01*
X149467380Y-95186428D01*
X149467380Y-94995952D01*
X149419761Y-94900714D01*
X149372142Y-94853095D01*
X149276904Y-94805476D01*
X148467380Y-94805476D01*
X149467380Y-93805476D02*
X149467380Y-94376904D01*
X149467380Y-94091190D02*
X148467380Y-94091190D01*
X148610238Y-94186428D01*
X148705476Y-94281666D01*
X148753095Y-94376904D01*
G04 #@! TO.C,C1*
X144613333Y-85447142D02*
X144565714Y-85494761D01*
X144422857Y-85542380D01*
X144327619Y-85542380D01*
X144184761Y-85494761D01*
X144089523Y-85399523D01*
X144041904Y-85304285D01*
X143994285Y-85113809D01*
X143994285Y-84970952D01*
X144041904Y-84780476D01*
X144089523Y-84685238D01*
X144184761Y-84590000D01*
X144327619Y-84542380D01*
X144422857Y-84542380D01*
X144565714Y-84590000D01*
X144613333Y-84637619D01*
X145565714Y-85542380D02*
X144994285Y-85542380D01*
X145280000Y-85542380D02*
X145280000Y-84542380D01*
X145184761Y-84685238D01*
X145089523Y-84780476D01*
X144994285Y-84828095D01*
G04 #@! TD*
M02*
