G04 #@! TF.GenerationSoftware,KiCad,Pcbnew,5.0.2+dfsg1-1*
G04 #@! TF.CreationDate,2020-08-26T18:16:29+10:00*
G04 #@! TF.ProjectId,board_k,626f6172-645f-46b2-9e6b-696361645f70,rev?*
G04 #@! TF.SameCoordinates,Original*
G04 #@! TF.FileFunction,Copper,L1,Top*
G04 #@! TF.FilePolarity,Positive*
%FSLAX46Y46*%
G04 Gerber Fmt 4.6, Leading zero omitted, Abs format (unit mm)*
G04 Created by KiCad (PCBNEW 5.0.2+dfsg1-1) date Wed Aug 26 18:16:29 2020*
%MOMM*%
%LPD*%
G01*
G04 APERTURE LIST*
G04 #@! TA.AperFunction,Conductor*
%ADD10C,0.100000*%
G04 #@! TD*
G04 #@! TA.AperFunction,ComponentPad*
%ADD11C,1.700000*%
G04 #@! TD*
G04 #@! TA.AperFunction,ComponentPad*
%ADD12O,1.950000X1.700000*%
G04 #@! TD*
G04 #@! TA.AperFunction,ComponentPad*
%ADD13O,1.700000X2.000000*%
G04 #@! TD*
G04 #@! TA.AperFunction,ComponentPad*
%ADD14R,1.600000X1.600000*%
G04 #@! TD*
G04 #@! TA.AperFunction,ComponentPad*
%ADD15O,1.600000X1.600000*%
G04 #@! TD*
G04 #@! TA.AperFunction,ComponentPad*
%ADD16C,1.600000*%
G04 #@! TD*
G04 #@! TA.AperFunction,ViaPad*
%ADD17C,0.800000*%
G04 #@! TD*
G04 #@! TA.AperFunction,Conductor*
%ADD18C,0.508000*%
G04 #@! TD*
G04 APERTURE END LIST*
D10*
G04 #@! TO.N,txd*
G04 #@! TO.C,J3*
G36*
X152514504Y-93131204D02*
X152538773Y-93134804D01*
X152562571Y-93140765D01*
X152585671Y-93149030D01*
X152607849Y-93159520D01*
X152628893Y-93172133D01*
X152648598Y-93186747D01*
X152666777Y-93203223D01*
X152683253Y-93221402D01*
X152697867Y-93241107D01*
X152710480Y-93262151D01*
X152720970Y-93284329D01*
X152729235Y-93307429D01*
X152735196Y-93331227D01*
X152738796Y-93355496D01*
X152740000Y-93380000D01*
X152740000Y-94580000D01*
X152738796Y-94604504D01*
X152735196Y-94628773D01*
X152729235Y-94652571D01*
X152720970Y-94675671D01*
X152710480Y-94697849D01*
X152697867Y-94718893D01*
X152683253Y-94738598D01*
X152666777Y-94756777D01*
X152648598Y-94773253D01*
X152628893Y-94787867D01*
X152607849Y-94800480D01*
X152585671Y-94810970D01*
X152562571Y-94819235D01*
X152538773Y-94825196D01*
X152514504Y-94828796D01*
X152490000Y-94830000D01*
X151040000Y-94830000D01*
X151015496Y-94828796D01*
X150991227Y-94825196D01*
X150967429Y-94819235D01*
X150944329Y-94810970D01*
X150922151Y-94800480D01*
X150901107Y-94787867D01*
X150881402Y-94773253D01*
X150863223Y-94756777D01*
X150846747Y-94738598D01*
X150832133Y-94718893D01*
X150819520Y-94697849D01*
X150809030Y-94675671D01*
X150800765Y-94652571D01*
X150794804Y-94628773D01*
X150791204Y-94604504D01*
X150790000Y-94580000D01*
X150790000Y-93380000D01*
X150791204Y-93355496D01*
X150794804Y-93331227D01*
X150800765Y-93307429D01*
X150809030Y-93284329D01*
X150819520Y-93262151D01*
X150832133Y-93241107D01*
X150846747Y-93221402D01*
X150863223Y-93203223D01*
X150881402Y-93186747D01*
X150901107Y-93172133D01*
X150922151Y-93159520D01*
X150944329Y-93149030D01*
X150967429Y-93140765D01*
X150991227Y-93134804D01*
X151015496Y-93131204D01*
X151040000Y-93130000D01*
X152490000Y-93130000D01*
X152514504Y-93131204D01*
X152514504Y-93131204D01*
G37*
D11*
G04 #@! TD*
G04 #@! TO.P,J3,1*
G04 #@! TO.N,txd*
X151765000Y-93980000D03*
D12*
G04 #@! TO.P,J3,2*
G04 #@! TO.N,rxd*
X151765000Y-91480000D03*
G04 #@! TO.P,J3,3*
G04 #@! TO.N,GND*
X151765000Y-88980000D03*
G04 #@! TO.P,J3,4*
G04 #@! TO.N,+5V*
X151765000Y-86480000D03*
G04 #@! TD*
D10*
G04 #@! TO.N,GND*
G04 #@! TO.C,J2*
G36*
X156834504Y-99331204D02*
X156858773Y-99334804D01*
X156882571Y-99340765D01*
X156905671Y-99349030D01*
X156927849Y-99359520D01*
X156948893Y-99372133D01*
X156968598Y-99386747D01*
X156986777Y-99403223D01*
X157003253Y-99421402D01*
X157017867Y-99441107D01*
X157030480Y-99462151D01*
X157040970Y-99484329D01*
X157049235Y-99507429D01*
X157055196Y-99531227D01*
X157058796Y-99555496D01*
X157060000Y-99580000D01*
X157060000Y-101080000D01*
X157058796Y-101104504D01*
X157055196Y-101128773D01*
X157049235Y-101152571D01*
X157040970Y-101175671D01*
X157030480Y-101197849D01*
X157017867Y-101218893D01*
X157003253Y-101238598D01*
X156986777Y-101256777D01*
X156968598Y-101273253D01*
X156948893Y-101287867D01*
X156927849Y-101300480D01*
X156905671Y-101310970D01*
X156882571Y-101319235D01*
X156858773Y-101325196D01*
X156834504Y-101328796D01*
X156810000Y-101330000D01*
X155610000Y-101330000D01*
X155585496Y-101328796D01*
X155561227Y-101325196D01*
X155537429Y-101319235D01*
X155514329Y-101310970D01*
X155492151Y-101300480D01*
X155471107Y-101287867D01*
X155451402Y-101273253D01*
X155433223Y-101256777D01*
X155416747Y-101238598D01*
X155402133Y-101218893D01*
X155389520Y-101197849D01*
X155379030Y-101175671D01*
X155370765Y-101152571D01*
X155364804Y-101128773D01*
X155361204Y-101104504D01*
X155360000Y-101080000D01*
X155360000Y-99580000D01*
X155361204Y-99555496D01*
X155364804Y-99531227D01*
X155370765Y-99507429D01*
X155379030Y-99484329D01*
X155389520Y-99462151D01*
X155402133Y-99441107D01*
X155416747Y-99421402D01*
X155433223Y-99403223D01*
X155451402Y-99386747D01*
X155471107Y-99372133D01*
X155492151Y-99359520D01*
X155514329Y-99349030D01*
X155537429Y-99340765D01*
X155561227Y-99334804D01*
X155585496Y-99331204D01*
X155610000Y-99330000D01*
X156810000Y-99330000D01*
X156834504Y-99331204D01*
X156834504Y-99331204D01*
G37*
D11*
G04 #@! TD*
G04 #@! TO.P,J2,1*
G04 #@! TO.N,GND*
X156210000Y-100330000D03*
D13*
G04 #@! TO.P,J2,2*
G04 #@! TO.N,+5V*
X158710000Y-100330000D03*
G04 #@! TD*
D14*
G04 #@! TO.P,U1,1*
G04 #@! TO.N,+3V3*
X146685000Y-90805000D03*
D15*
G04 #@! TO.P,U1,5*
G04 #@! TO.N,ss*
X139065000Y-98425000D03*
G04 #@! TO.P,U1,2*
G04 #@! TO.N,miso*
X144145000Y-90805000D03*
G04 #@! TO.P,U1,6*
G04 #@! TO.N,mosi*
X141605000Y-98425000D03*
G04 #@! TO.P,U1,3*
G04 #@! TO.N,ck*
X141605000Y-90805000D03*
G04 #@! TO.P,U1,7*
G04 #@! TO.N,Net-(U1-Pad7)*
X144145000Y-98425000D03*
G04 #@! TO.P,U1,4*
G04 #@! TO.N,Net-(U1-Pad4)*
X139065000Y-90805000D03*
G04 #@! TO.P,U1,8*
G04 #@! TO.N,GND*
X146685000Y-98425000D03*
G04 #@! TD*
D16*
G04 #@! TO.P,C1,1*
G04 #@! TO.N,+3V3*
X142240000Y-86360000D03*
G04 #@! TO.P,C1,2*
G04 #@! TO.N,GND*
X147240000Y-86360000D03*
G04 #@! TD*
D17*
G04 #@! TO.N,ss*
X136525000Y-85725000D03*
X136525000Y-98425000D03*
G04 #@! TO.N,miso*
X128905000Y-86995000D03*
X135255000Y-92710000D03*
G04 #@! TO.N,mosi*
X140335000Y-97155000D03*
X137795000Y-87630000D03*
G04 #@! TO.N,ck*
X128905000Y-85090000D03*
X135255000Y-88900000D03*
G04 #@! TO.N,txd*
X128905000Y-89535000D03*
X151130000Y-101600000D03*
G04 #@! TO.N,rxd*
X130175000Y-90170000D03*
X149225000Y-100330000D03*
G04 #@! TD*
D18*
G04 #@! TO.N,ss*
X136525000Y-98425000D02*
X136525000Y-85725000D01*
G04 #@! TO.N,miso*
X131518010Y-89608010D02*
X128905000Y-86995000D01*
X134620000Y-92710000D02*
X131518010Y-89608010D01*
X135255000Y-92710000D02*
X134620000Y-92710000D01*
G04 #@! TO.N,mosi*
X137795000Y-93980000D02*
X140335000Y-97155000D01*
X137795000Y-87630000D02*
X137795000Y-93980000D01*
G04 #@! TO.N,ck*
X132715000Y-88900000D02*
X128905000Y-85090000D01*
X135255000Y-88900000D02*
X132715000Y-88900000D01*
G04 #@! TO.N,txd*
X128905000Y-101600000D02*
X128905000Y-89535000D01*
X151130000Y-101600000D02*
X128905000Y-101600000D01*
G04 #@! TO.N,rxd*
X149225000Y-100330000D02*
X130175000Y-100330000D01*
X130175000Y-100330000D02*
X130175000Y-90170000D01*
G04 #@! TD*
M02*
